<svg fill="none" height="32" viewBox="0 0 165 32" width="165" xmlns="http://www.w3.org/2000/svg">
  <g fill="#1e293b">
    <path d="m7 11h-4.866c-1.178 0-2.134.955-2.134 2.133v1.867h7.333c1.841 0 3.333-1.492 3.333-3.333s1.493-3.334 3.334-3.334h12.666c1.473 0 2.667-1.194 2.667-2.666v-2h-15c-2.025 0-3.667 1.642-3.667 3.666 0 2.025-1.642 3.667-3.667 3.667z"/>
    <path d="m7 17.667h-4.866c-1.178 0-2.134.955-2.134 2.133v1.867h7.333c1.841 0 3.333-1.493 3.333-3.334s1.493-3.333 3.334-3.333h8.666c1.473 0 2.667-1.194 2.667-2.667v-2h-11c-2.025 0-3.667 1.642-3.667 3.667s-1.642 3.667-3.667 3.667z" opacity=".75"/>
    <path d="m7 24.333h-4.866c-1.178 0-2.134.956-2.134 2.134v1.866h7.333c1.841 0 3.333-1.492 3.333-3.333s1.493-3.333 3.334-3.333h5.2c1.178 0 2.133-.956 2.133-2.134v-2.533h-7c-2.025 0-3.667 1.642-3.667 3.667s-1.642 3.666-3.667 3.666z" opacity=".5"/>
  </g>
  <text x="35" y="22.5" font-family="ui-sans-serif, system-ui, -apple-system, BlinkMacSystemFont, Segoe UI, Roboto, Helvetica Neue, Arial, sans-serif" font-size="22" font-weight="600" fill="#1e293b">Parallax</text>
</svg>
